<mxfile host="app.diagrams.net" agent="Mozilla/5.0 (Windows NT 10.0; Win64; x64) AppleWebKit/537.36 (KHTML, like Gecko) Chrome/134.0.0.0 Safari/537.36" version="26.1.1">
  <diagram name="Page-1" id="52a04d89-c75d-2922-d76d-85b35f80e030">
    <mxGraphModel dx="1221" dy="725" grid="1" gridSize="10" guides="1" tooltips="1" connect="1" arrows="1" fold="1" page="1" pageScale="1" pageWidth="1169" pageHeight="827" background="none" math="0" shadow="0">
      <root>
        <mxCell id="0" />
        <mxCell id="1" parent="0" />
        <mxCell id="Y9ctQFOpgez3Ar2XIEyX-36" value="" style="edgeStyle=orthogonalEdgeStyle;rounded=0;orthogonalLoop=1;jettySize=auto;html=1;" edge="1" parent="1" source="Y9ctQFOpgez3Ar2XIEyX-11" target="Y9ctQFOpgez3Ar2XIEyX-13">
          <mxGeometry relative="1" as="geometry" />
        </mxCell>
        <mxCell id="Y9ctQFOpgez3Ar2XIEyX-11" value="Start" style="ellipse;whiteSpace=wrap;html=1;fillColor=#d5e8d4;strokeColor=#82b366;gradientColor=#67AB9F;gradientDirection=radial;" vertex="1" parent="1">
          <mxGeometry x="110" y="30" width="120" height="80" as="geometry" />
        </mxCell>
        <mxCell id="Y9ctQFOpgez3Ar2XIEyX-12" value="End" style="ellipse;whiteSpace=wrap;html=1;fillColor=#d5e8d4;strokeColor=#82b366;gradientColor=#67AB9F;gradientDirection=radial;" vertex="1" parent="1">
          <mxGeometry x="900" y="410" width="120" height="80" as="geometry" />
        </mxCell>
        <mxCell id="Y9ctQFOpgez3Ar2XIEyX-37" style="edgeStyle=orthogonalEdgeStyle;rounded=0;orthogonalLoop=1;jettySize=auto;html=1;" edge="1" parent="1" source="Y9ctQFOpgez3Ar2XIEyX-13" target="Y9ctQFOpgez3Ar2XIEyX-18">
          <mxGeometry relative="1" as="geometry" />
        </mxCell>
        <mxCell id="Y9ctQFOpgez3Ar2XIEyX-13" value="Data Collection" style="rounded=0;whiteSpace=wrap;html=1;fillColor=#f8cecc;strokeColor=#b85450;gradientColor=#EA6B66;" vertex="1" parent="1">
          <mxGeometry x="110" y="260" width="120" height="60" as="geometry" />
        </mxCell>
        <mxCell id="Y9ctQFOpgez3Ar2XIEyX-45" style="edgeStyle=orthogonalEdgeStyle;rounded=0;orthogonalLoop=1;jettySize=auto;html=1;entryX=0.75;entryY=0;entryDx=0;entryDy=0;" edge="1" parent="1" source="Y9ctQFOpgez3Ar2XIEyX-14" target="Y9ctQFOpgez3Ar2XIEyX-13">
          <mxGeometry relative="1" as="geometry" />
        </mxCell>
        <mxCell id="Y9ctQFOpgez3Ar2XIEyX-14" value="Meteorological Station Data&lt;br&gt;(Rainfall Time Series)" style="shape=parallelogram;perimeter=parallelogramPerimeter;whiteSpace=wrap;html=1;fixedSize=1;fillColor=#dae8fc;strokeColor=#6c8ebf;gradientColor=#7EA6E0;gradientDirection=south;" vertex="1" parent="1">
          <mxGeometry x="270" y="100" width="200" height="60" as="geometry" />
        </mxCell>
        <mxCell id="Y9ctQFOpgez3Ar2XIEyX-39" value="" style="edgeStyle=orthogonalEdgeStyle;rounded=0;orthogonalLoop=1;jettySize=auto;html=1;" edge="1" parent="1" source="Y9ctQFOpgez3Ar2XIEyX-15" target="Y9ctQFOpgez3Ar2XIEyX-13">
          <mxGeometry relative="1" as="geometry" />
        </mxCell>
        <mxCell id="Y9ctQFOpgez3Ar2XIEyX-15" value="Waterlogging Monitoring Data&lt;br&gt;(Water Depth Time Series)" style="shape=parallelogram;perimeter=parallelogramPerimeter;whiteSpace=wrap;html=1;fixedSize=1;fillColor=#dae8fc;strokeColor=#6c8ebf;gradientColor=#7EA6E0;" vertex="1" parent="1">
          <mxGeometry x="270" y="260" width="200" height="60" as="geometry" />
        </mxCell>
        <mxCell id="Y9ctQFOpgez3Ar2XIEyX-46" style="edgeStyle=orthogonalEdgeStyle;rounded=0;orthogonalLoop=1;jettySize=auto;html=1;entryX=0.75;entryY=1;entryDx=0;entryDy=0;" edge="1" parent="1" source="Y9ctQFOpgez3Ar2XIEyX-16" target="Y9ctQFOpgez3Ar2XIEyX-13">
          <mxGeometry relative="1" as="geometry" />
        </mxCell>
        <mxCell id="Y9ctQFOpgez3Ar2XIEyX-16" value="Topographic, Land and&lt;br&gt;Municipal Data" style="shape=parallelogram;perimeter=parallelogramPerimeter;whiteSpace=wrap;html=1;fixedSize=1;fillColor=#dae8fc;strokeColor=#6c8ebf;gradientColor=#7EA6E0;" vertex="1" parent="1">
          <mxGeometry x="270" y="410" width="200" height="60" as="geometry" />
        </mxCell>
        <mxCell id="Y9ctQFOpgez3Ar2XIEyX-18" value="&lt;b&gt;Preprocessing&lt;/b&gt;" style="swimlane;fontStyle=0;childLayout=stackLayout;horizontal=1;startSize=30;horizontalStack=0;resizeParent=1;resizeParentMax=0;resizeLast=0;collapsible=1;marginBottom=0;whiteSpace=wrap;html=1;glass=0;fillColor=#d80073;strokeColor=#A50040;fontColor=#ffffff;" vertex="1" parent="1">
          <mxGeometry x="80" y="490" width="180" height="130" as="geometry" />
        </mxCell>
        <mxCell id="Y9ctQFOpgez3Ar2XIEyX-19" value="1. Fill Missing Timestamp in Rainfall and Water Depth Data" style="text;strokeColor=none;fillColor=none;align=left;verticalAlign=middle;spacingLeft=4;spacingRight=4;overflow=hidden;points=[[0,0.5],[1,0.5]];portConstraint=eastwest;rotatable=0;whiteSpace=wrap;html=1;" vertex="1" parent="Y9ctQFOpgez3Ar2XIEyX-18">
          <mxGeometry y="30" width="180" height="50" as="geometry" />
        </mxCell>
        <mxCell id="Y9ctQFOpgez3Ar2XIEyX-20" value="2. Convert Continuous Data into Structured Windows" style="text;strokeColor=none;fillColor=none;align=left;verticalAlign=middle;spacingLeft=4;spacingRight=4;overflow=hidden;points=[[0,0.5],[1,0.5]];portConstraint=eastwest;rotatable=0;whiteSpace=wrap;html=1;" vertex="1" parent="Y9ctQFOpgez3Ar2XIEyX-18">
          <mxGeometry y="80" width="180" height="50" as="geometry" />
        </mxCell>
        <mxCell id="Y9ctQFOpgez3Ar2XIEyX-50" style="edgeStyle=orthogonalEdgeStyle;rounded=0;orthogonalLoop=1;jettySize=auto;html=1;" edge="1" parent="1" source="Y9ctQFOpgez3Ar2XIEyX-23">
          <mxGeometry relative="1" as="geometry">
            <mxPoint x="640" y="400" as="targetPoint" />
          </mxGeometry>
        </mxCell>
        <mxCell id="Y9ctQFOpgez3Ar2XIEyX-23" value="&lt;b&gt;Feature Extraction&lt;/b&gt;" style="swimlane;fontStyle=0;childLayout=stackLayout;horizontal=1;startSize=30;horizontalStack=0;resizeParent=1;resizeParentMax=0;resizeLast=0;collapsible=1;marginBottom=0;whiteSpace=wrap;html=1;fillColor=#d80073;fontColor=#ffffff;strokeColor=#A50040;" vertex="1" parent="1">
          <mxGeometry x="550" y="490" width="180" height="240" as="geometry" />
        </mxCell>
        <mxCell id="Y9ctQFOpgez3Ar2XIEyX-24" value="Features (X):&lt;div&gt;&lt;ul&gt;&lt;li&gt;Cumulative Rainfall&lt;/li&gt;&lt;li&gt;Seasonality&lt;/li&gt;&lt;li&gt;Mean&lt;/li&gt;&lt;li&gt;Max&lt;/li&gt;&lt;li&gt;Standard Deviation&lt;/li&gt;&lt;li&gt;Skewness&lt;/li&gt;&lt;li&gt;Kurtosis&lt;/li&gt;&lt;/ul&gt;&lt;/div&gt;" style="text;strokeColor=none;fillColor=none;align=left;verticalAlign=middle;spacingLeft=4;spacingRight=4;overflow=hidden;points=[[0,0.5],[1,0.5]];portConstraint=eastwest;rotatable=0;whiteSpace=wrap;html=1;" vertex="1" parent="Y9ctQFOpgez3Ar2XIEyX-23">
          <mxGeometry y="30" width="180" height="150" as="geometry" />
        </mxCell>
        <mxCell id="Y9ctQFOpgez3Ar2XIEyX-25" value="Label (y):&lt;div&gt;&lt;ul&gt;&lt;li&gt;Mean Water Depth&lt;/li&gt;&lt;/ul&gt;&lt;/div&gt;" style="text;strokeColor=none;fillColor=none;align=left;verticalAlign=middle;spacingLeft=4;spacingRight=4;overflow=hidden;points=[[0,0.5],[1,0.5]];portConstraint=eastwest;rotatable=0;whiteSpace=wrap;html=1;" vertex="1" parent="Y9ctQFOpgez3Ar2XIEyX-23">
          <mxGeometry y="180" width="180" height="60" as="geometry" />
        </mxCell>
        <mxCell id="Y9ctQFOpgez3Ar2XIEyX-51" style="edgeStyle=orthogonalEdgeStyle;rounded=0;orthogonalLoop=1;jettySize=auto;html=1;" edge="1" parent="1" source="Y9ctQFOpgez3Ar2XIEyX-26">
          <mxGeometry relative="1" as="geometry">
            <mxPoint x="640" y="180" as="targetPoint" />
          </mxGeometry>
        </mxCell>
        <mxCell id="Y9ctQFOpgez3Ar2XIEyX-26" value="&lt;b&gt;Model Training&lt;/b&gt;" style="swimlane;fontStyle=0;childLayout=stackLayout;horizontal=1;startSize=30;horizontalStack=0;resizeParent=1;resizeParentMax=0;resizeLast=0;collapsible=1;marginBottom=0;whiteSpace=wrap;html=1;glass=0;fillColor=#d80073;fontColor=#ffffff;strokeColor=#A50040;" vertex="1" parent="1">
          <mxGeometry x="550" y="290" width="180" height="100" as="geometry" />
        </mxCell>
        <mxCell id="Y9ctQFOpgez3Ar2XIEyX-27" value="1. Apply Regression Models" style="text;strokeColor=none;fillColor=none;align=left;verticalAlign=middle;spacingLeft=4;spacingRight=4;overflow=hidden;points=[[0,0.5],[1,0.5]];portConstraint=eastwest;rotatable=0;whiteSpace=wrap;html=1;" vertex="1" parent="Y9ctQFOpgez3Ar2XIEyX-26">
          <mxGeometry y="30" width="180" height="30" as="geometry" />
        </mxCell>
        <mxCell id="Y9ctQFOpgez3Ar2XIEyX-28" value="2. Balance Data and Tune Model Params" style="text;strokeColor=none;fillColor=none;align=left;verticalAlign=middle;spacingLeft=4;spacingRight=4;overflow=hidden;points=[[0,0.5],[1,0.5]];portConstraint=eastwest;rotatable=0;whiteSpace=wrap;html=1;" vertex="1" parent="Y9ctQFOpgez3Ar2XIEyX-26">
          <mxGeometry y="60" width="180" height="40" as="geometry" />
        </mxCell>
        <mxCell id="Y9ctQFOpgez3Ar2XIEyX-29" value="&lt;b&gt;Model Evaluation&lt;/b&gt;" style="swimlane;fontStyle=0;childLayout=stackLayout;horizontal=1;startSize=30;horizontalStack=0;resizeParent=1;resizeParentMax=0;resizeLast=0;collapsible=1;marginBottom=0;whiteSpace=wrap;html=1;glass=0;fillColor=#d80073;fontColor=#ffffff;strokeColor=#A50040;" vertex="1" parent="1">
          <mxGeometry x="550" y="90" width="180" height="80" as="geometry" />
        </mxCell>
        <mxCell id="Y9ctQFOpgez3Ar2XIEyX-30" value="MSE and R&lt;sup&gt;2&lt;/sup&gt;&amp;nbsp;to Evaluate Performance" style="text;strokeColor=none;fillColor=none;align=center;verticalAlign=middle;spacingLeft=4;spacingRight=4;overflow=hidden;points=[[0,0.5],[1,0.5]];portConstraint=eastwest;rotatable=0;whiteSpace=wrap;html=1;" vertex="1" parent="Y9ctQFOpgez3Ar2XIEyX-29">
          <mxGeometry y="30" width="180" height="50" as="geometry" />
        </mxCell>
        <mxCell id="Y9ctQFOpgez3Ar2XIEyX-53" value="" style="edgeStyle=orthogonalEdgeStyle;rounded=0;orthogonalLoop=1;jettySize=auto;html=1;" edge="1" parent="1" source="Y9ctQFOpgez3Ar2XIEyX-32" target="Y9ctQFOpgez3Ar2XIEyX-12">
          <mxGeometry relative="1" as="geometry" />
        </mxCell>
        <mxCell id="Y9ctQFOpgez3Ar2XIEyX-32" value="&lt;b&gt;Risk Analysis&lt;/b&gt;" style="swimlane;fontStyle=0;childLayout=stackLayout;horizontal=1;startSize=30;horizontalStack=0;resizeParent=1;resizeParentMax=0;resizeLast=0;collapsible=1;marginBottom=0;whiteSpace=wrap;html=1;glass=0;fillColor=#d80073;fontColor=#ffffff;strokeColor=#A50040;" vertex="1" parent="1">
          <mxGeometry x="870" y="90" width="180" height="230" as="geometry" />
        </mxCell>
        <mxCell id="Y9ctQFOpgez3Ar2XIEyX-33" value="1. Compute Amplification Factor" style="text;strokeColor=none;fillColor=none;align=left;verticalAlign=middle;spacingLeft=4;spacingRight=4;overflow=hidden;points=[[0,0.5],[1,0.5]];portConstraint=eastwest;rotatable=0;whiteSpace=wrap;html=1;" vertex="1" parent="Y9ctQFOpgez3Ar2XIEyX-32">
          <mxGeometry y="30" width="180" height="50" as="geometry" />
        </mxCell>
        <mxCell id="Y9ctQFOpgez3Ar2XIEyX-34" value="2. Consider:&lt;div&gt;&lt;ul&gt;&lt;li&gt;Elevation&lt;/li&gt;&lt;li&gt;Land&lt;/li&gt;&lt;li&gt;Drainage&lt;/li&gt;&lt;li&gt;Slope&lt;/li&gt;&lt;li&gt;Priority&lt;/li&gt;&lt;/ul&gt;&lt;/div&gt;" style="text;strokeColor=none;fillColor=none;align=left;verticalAlign=middle;spacingLeft=4;spacingRight=4;overflow=hidden;points=[[0,0.5],[1,0.5]];portConstraint=eastwest;rotatable=0;whiteSpace=wrap;html=1;" vertex="1" parent="Y9ctQFOpgez3Ar2XIEyX-32">
          <mxGeometry y="80" width="180" height="100" as="geometry" />
        </mxCell>
        <mxCell id="Y9ctQFOpgez3Ar2XIEyX-35" value="3. Final Risk Level using Weighted Sum" style="text;strokeColor=none;fillColor=none;align=left;verticalAlign=middle;spacingLeft=4;spacingRight=4;overflow=hidden;points=[[0,0.5],[1,0.5]];portConstraint=eastwest;rotatable=0;whiteSpace=wrap;html=1;" vertex="1" parent="Y9ctQFOpgez3Ar2XIEyX-32">
          <mxGeometry y="180" width="180" height="50" as="geometry" />
        </mxCell>
        <mxCell id="Y9ctQFOpgez3Ar2XIEyX-48" style="edgeStyle=orthogonalEdgeStyle;rounded=0;orthogonalLoop=1;jettySize=auto;html=1;entryX=-0.006;entryY=0.162;entryDx=0;entryDy=0;entryPerimeter=0;" edge="1" parent="1" source="Y9ctQFOpgez3Ar2XIEyX-19" target="Y9ctQFOpgez3Ar2XIEyX-24">
          <mxGeometry relative="1" as="geometry" />
        </mxCell>
        <mxCell id="Y9ctQFOpgez3Ar2XIEyX-52" style="edgeStyle=orthogonalEdgeStyle;rounded=0;orthogonalLoop=1;jettySize=auto;html=1;entryX=-0.017;entryY=0.193;entryDx=0;entryDy=0;entryPerimeter=0;" edge="1" parent="1" source="Y9ctQFOpgez3Ar2XIEyX-29" target="Y9ctQFOpgez3Ar2XIEyX-33">
          <mxGeometry relative="1" as="geometry" />
        </mxCell>
      </root>
    </mxGraphModel>
  </diagram>
</mxfile>
